<svg xmlns="http://www.w3.org/2000/svg" width="18" height="18" fill="none" viewBox="0 0 18 18">
                            <path fill-rule="evenodd" d="M.5 2.875a2 2 0 0 1 2-2h13a2 2 0 0 1 2 2v10a2 2 0 0 1-2 2h-3.532l-2.2 2.64a1 1 0 0 1-1.536 0l-2.2-2.64H2.5a2 2 0 0 1-2-2v-10zm15 0h-13v10h4a1 1 0 0 1 .768.36L9 15.313l1.732-2.078a1 1 0 0 1 .768-.36h4v-10zm-12 3a1 1 0 0 1 1-1h9a1 1 0 1 1 0 2h-9a1 1 0 0 1-1-1zm1 3a1 1 0 1 0 0 2h9a1 1 0 1 0 0-2h-9z" fill="#111029"></path>
                          </svg>