<svg width="44" height="44" viewBox="0 0 44 44" fill="none" xmlns="http://www.w3.org/2000/svg">
<path d="M42 22C42.0034 24.6343 41.4847 27.2432 40.4739 29.6759C39.4631 32.1085 37.9802 34.3168 36.111 36.173C34.2571 38.0237 32.0566 39.4909 29.6353 40.4907C27.2141 41.4905 24.6196 42.0034 22 42C10.954 42 2 33.046 2 22C1.99301 16.8718 3.96287 11.9382 7.5 8.225C9.36634 6.2556 11.6149 4.68774 14.1081 3.61738C16.6013 2.54702 19.2867 1.99667 22 2C24.6196 1.99661 27.2141 2.50948 29.6353 3.50931C32.0566 4.50914 34.2571 5.97632 36.111 7.827C37.9802 9.68323 39.4631 11.8915 40.4739 14.3241C41.4847 16.7568 42.0034 19.3657 42 22V22Z" stroke="#C5C5C5" stroke-width="4" stroke-linecap="round" stroke-linejoin="round"/>
<path d="M42 22C39.082 22 31.032 20.9 23.827 24.063C16 27.5 10.333 32.831 7.86301 36.147" stroke="#C5C5C5" stroke-width="4" stroke-linecap="round" stroke-linejoin="round"/>
<path d="M14.5 3.454C17.63 6.343 24.46 13.698 27 21C29.54 28.302 30.48 37.28 31.06 39.835" stroke="#C5C5C5" stroke-width="4" stroke-linecap="round" stroke-linejoin="round"/>
<path d="M3.50001 29.613C5.26232 33.8789 8.44071 37.4073 12.5 39.604M2.15401 19.5C5.93201 19.728 15.933 19.933 22.333 17.2C28.733 14.467 34.24 9.44 36.129 7.845L2.15401 19.5Z" stroke="#C5C5C5" stroke-width="4" stroke-linecap="round" stroke-linejoin="round"/>
<path d="M22 42C24.6196 42.0034 27.2141 41.4905 29.6353 40.4907C32.0566 39.4909 34.2571 38.0237 36.111 36.173M2 22C1.99301 16.8718 3.96287 11.9382 7.5 8.225L2 22ZM22 2C19.2867 1.99667 16.6013 2.54702 14.1081 3.61738C11.6149 4.68774 9.36634 6.2556 7.5 8.225L22 2ZM30 3.664C32.2776 4.66054 34.3499 6.07224 36.111 7.827C37.9802 9.68323 39.4631 11.8915 40.4739 14.3241C41.4847 16.7568 42.0034 19.3657 42 22C42 24.462 41.555 26.821 40.74 29L30 3.664Z" stroke="#C5C5C5" stroke-width="4" stroke-linecap="round" stroke-linejoin="round"/>
</svg>
