<svg width="76" height="76" viewBox="0 0 76 76" fill="none" xmlns="http://www.w3.org/2000/svg">
<path d="M38 0.5C17.3213 0.5 0.5 17.3213 0.5 38C0.5 58.6787 17.3213 75.5 38 75.5C58.6787 75.5 75.5 58.6787 75.5 38C75.5 17.3213 58.6787 0.5 38 0.5ZM38 6.75C45.9224 6.75 53.1001 9.72852 58.6055 14.5625C58.0195 15.3804 57.2261 16.3691 55.9688 17.5898C53.2954 20.1777 49.0229 23.2905 42.4922 25.6953C38.0732 17.5288 33.7397 11.3887 30.8711 7.53125C33.1538 7.00635 35.5464 6.75 38 6.75ZM24.7188 9.67969C27.2822 13.0366 31.8477 19.2622 36.4375 27.5508C23.73 30.9199 12.0723 31.3472 7.43359 31.3594C9.50879 21.7036 16.0029 13.7568 24.7188 9.67969ZM62.9023 19.1523C66.7109 24.1938 69.0791 30.4316 69.25 37.2188C66.4668 36.5962 62.3652 35.9858 57.043 35.9492C54.272 35.937 51.1348 36.1323 47.7656 36.5352C46.9844 34.7529 46.1421 33.0317 45.3242 31.3594C52.3311 28.6738 57.104 25.1338 60.2656 22.082C61.3398 21.0322 62.1821 20.0679 62.9023 19.1523ZM39.2695 33.2148C39.9897 34.6675 40.7222 36.1567 41.418 37.707C28.0635 41.4058 18.4688 52.7339 14.3672 58.4102C9.64307 52.9414 6.75 45.8125 6.75 38C6.75 37.8657 6.75 37.7437 6.75 37.6094C10.9736 37.6582 24.4014 37.3652 39.2695 33.2148ZM57.043 42.1016C62.6216 42.1016 66.479 42.8828 68.7617 43.4688C67.3091 51.7939 62.6094 58.9351 55.9688 63.5859C54.7236 56.1152 52.6729 49.0107 50.207 42.4922C52.6729 42.248 55.0044 42.1016 57.043 42.1016ZM43.8594 43.5664C46.667 50.6953 49.0229 58.52 50.207 66.8086C46.4717 68.3833 42.3213 69.25 38 69.25C30.8345 69.25 24.2183 66.8452 18.957 62.8047C22.1675 58.4102 31.6035 46.7158 43.8594 43.5664Z" fill="#9F9FA9"/>
</svg>
