<svg width="30" height="30" viewBox="0 0 30 30" fill="none" xmlns="http://www.w3.org/2000/svg">
<path d="M15 0.142856C6.80714 0.142856 0.142856 6.80714 0.142856 15C0.142856 23.1929 6.80714 29.8571 15 29.8571C23.1929 29.8571 29.8571 23.1929 29.8571 15C29.8571 6.80714 23.1929 0.142856 15 0.142856ZM24.825 6.99286C26.5929 9.15357 27.6643 11.9036 27.6893 14.9C27.2714 14.8107 23.075 13.9607 18.8536 14.4929C18.7643 14.275 18.675 14.0571 18.5821 13.8393C18.3179 13.2214 18.0357 12.6036 17.7393 12C22.4286 10.0821 24.5571 7.35714 24.825 6.99286ZM15 2.32857C18.225 2.32857 21.1714 3.53929 23.4107 5.525C23.1821 5.85 21.2714 8.41786 16.7607 10.1107C14.6821 6.28929 12.3786 3.15357 12.025 2.68214C13 2.44643 13.9964 2.32857 15 2.32857V2.32857ZM9.60357 3.53571C9.93929 3.99286 12.2071 7.13929 14.3071 10.875C8.37143 12.45 3.14286 12.4286 2.575 12.4214C3.4 8.48214 6.05357 5.21071 9.60357 3.53571ZM2.31071 15.0179C2.31071 14.8893 2.31428 14.7571 2.31786 14.6286C2.87143 14.6393 9.02143 14.7179 15.3607 12.8214C15.725 13.5321 16.0714 14.2536 16.3893 14.975C16.2214 15.0214 16.0536 15.0714 15.8893 15.125C9.34286 17.2464 5.86071 23.0143 5.57143 23.5036C3.54643 21.2536 2.31071 18.2786 2.31071 15.0179ZM15 27.7071C12.0643 27.7071 9.36071 26.7071 7.21071 25.0286C7.43929 24.5607 10.0071 19.6 17.1643 17.1036L17.2464 17.075C19.0286 21.7036 19.7643 25.5857 19.9536 26.7C18.3881 27.3691 16.7025 27.7118 15 27.7071V27.7071ZM22.0893 25.5393C21.9607 24.7679 21.2857 21.0536 19.625 16.4929C23.6036 15.8571 27.0964 16.9 27.5286 17.0357C26.9643 20.5643 24.9393 23.6143 22.0893 25.5393V25.5393Z" fill="#C5C5C5"/>
</svg>
