<svg width="29" height="29" viewBox="0 0 29 29" fill="none" xmlns="http://www.w3.org/2000/svg">
<path d="M14.2725 6.95106C10.2189 6.95106 6.94749 10.2225 6.94749 14.2761C6.94749 18.3296 10.2189 21.6011 14.2725 21.6011C18.3261 21.6011 21.5975 18.3296 21.5975 14.2761C21.5975 10.2225 18.3261 6.95106 14.2725 6.95106ZM14.2725 19.0368C11.6511 19.0368 9.51178 16.8975 9.51178 14.2761C9.51178 11.6546 11.6511 9.51535 14.2725 9.51535C16.8939 9.51535 19.0332 11.6546 19.0332 14.2761C19.0332 16.8975 16.8939 19.0368 14.2725 19.0368ZM21.8975 4.94392C20.9511 4.94392 20.1868 5.70821 20.1868 6.65463C20.1868 7.60106 20.9511 8.36535 21.8975 8.36535C22.8439 8.36535 23.6082 7.60463 23.6082 6.65463C23.6085 6.4299 23.5644 6.20732 23.4786 5.99964C23.3927 5.79196 23.2667 5.60326 23.1078 5.44435C22.9489 5.28544 22.7602 5.15944 22.5525 5.07357C22.3448 4.98769 22.1222 4.94364 21.8975 4.94392V4.94392ZM28.5511 14.2761C28.5511 12.3046 28.5689 10.3511 28.4582 8.38321C28.3475 6.09749 27.8261 4.06892 26.1546 2.39749C24.4796 0.722491 22.4546 0.204634 20.1689 0.0939194C18.1975 -0.0167949 16.2439 0.0010623 14.2761 0.0010623C12.3046 0.0010623 10.3511 -0.0167949 8.38321 0.0939194C6.09749 0.204634 4.06892 0.726062 2.39749 2.39749C0.722491 4.07249 0.204634 6.09749 0.0939194 8.38321C-0.0167949 10.3546 0.0010623 12.3082 0.0010623 14.2761C0.0010623 16.2439 -0.0167949 18.2011 0.0939194 20.1689C0.204634 22.4546 0.726062 24.4832 2.39749 26.1546C4.07249 27.8296 6.09749 28.3475 8.38321 28.4582C10.3546 28.5689 12.3082 28.5511 14.2761 28.5511C16.2475 28.5511 18.2011 28.5689 20.1689 28.4582C22.4546 28.3475 24.4832 27.8261 26.1546 26.1546C27.8296 24.4796 28.3475 22.4546 28.4582 20.1689C28.5725 18.2011 28.5511 16.2475 28.5511 14.2761V14.2761ZM25.4082 22.6975C25.1475 23.3475 24.8332 23.8332 24.3296 24.3332C23.8261 24.8368 23.3439 25.1511 22.6939 25.4118C20.8153 26.1582 16.3546 25.9903 14.2725 25.9903C12.1903 25.9903 7.72606 26.1582 5.84749 25.4153C5.19749 25.1546 4.71178 24.8403 4.21178 24.3368C3.70821 23.8332 3.39392 23.3511 3.13321 22.7011C2.39035 20.8189 2.55821 16.3582 2.55821 14.2761C2.55821 12.1939 2.39035 7.72963 3.13321 5.85106C3.39392 5.20106 3.70821 4.71535 4.21178 4.21535C4.71535 3.71535 5.19749 3.39749 5.84749 3.13678C7.72606 2.39392 12.1903 2.56178 14.2725 2.56178C16.3546 2.56178 20.8189 2.39392 22.6975 3.13678C23.3475 3.39749 23.8332 3.71178 24.3332 4.21535C24.8368 4.71892 25.1511 5.20106 25.4118 5.85106C26.1546 7.72963 25.9868 12.1939 25.9868 14.2761C25.9868 16.3582 26.1546 20.8189 25.4082 22.6975Z" fill="#C5C5C5"/>
</svg>
