<svg width="76" height="76" viewBox="0 0 76 76" fill="none" xmlns="http://www.w3.org/2000/svg">
<path d="M21.3333 0.5C9.84583 0.5 0.5 9.84583 0.5 21.3333V54.6667C0.5 66.1542 9.84583 75.5 21.3333 75.5H54.6667C66.1542 75.5 75.5 66.1542 75.5 54.6667V21.3333C75.5 9.84583 66.1542 0.5 54.6667 0.5H21.3333ZM21.3333 8.83333H54.6667C61.5583 8.83333 67.1667 14.4417 67.1667 21.3333V54.6667C67.1667 61.5583 61.5583 67.1667 54.6667 67.1667H21.3333C14.4417 67.1667 8.83333 61.5583 8.83333 54.6667V21.3333C8.83333 14.4417 14.4417 8.83333 21.3333 8.83333ZM58.8333 13C57.7283 13 56.6685 13.439 55.887 14.2204C55.1056 15.0018 54.6667 16.0616 54.6667 17.1667C54.6667 18.2717 55.1056 19.3315 55.887 20.1129C56.6685 20.8943 57.7283 21.3333 58.8333 21.3333C59.9384 21.3333 60.9982 20.8943 61.7796 20.1129C62.561 19.3315 63 18.2717 63 17.1667C63 16.0616 62.561 15.0018 61.7796 14.2204C60.9982 13.439 59.9384 13 58.8333 13ZM38 17.1667C26.5125 17.1667 17.1667 26.5125 17.1667 38C17.1667 49.4875 26.5125 58.8333 38 58.8333C49.4875 58.8333 58.8333 49.4875 58.8333 38C58.8333 26.5125 49.4875 17.1667 38 17.1667ZM38 25.5C44.8917 25.5 50.5 31.1083 50.5 38C50.5 44.8917 44.8917 50.5 38 50.5C31.1083 50.5 25.5 44.8917 25.5 38C25.5 31.1083 31.1083 25.5 38 25.5Z" fill="#9F9FA9"/>
</svg>
