<svg width="35" height="34" viewBox="0 0 35 34" fill="none" xmlns="http://www.w3.org/2000/svg">
<path d="M17.4953 8.27736C12.5264 8.27736 8.51627 12.173 8.51627 17C8.51627 21.827 12.5264 25.7226 17.4953 25.7226C22.4642 25.7226 26.4743 21.827 26.4743 17C26.4743 12.173 22.4642 8.27736 17.4953 8.27736ZM17.4953 22.6691C14.2819 22.6691 11.6596 20.1216 11.6596 17C11.6596 13.8784 14.2819 11.3309 17.4953 11.3309C20.7087 11.3309 23.331 13.8784 23.331 17C23.331 20.1216 20.7087 22.6691 17.4953 22.6691ZM26.8421 5.88724C25.6819 5.88724 24.7451 6.79736 24.7451 7.92437C24.7451 9.05138 25.6819 9.96149 26.8421 9.96149C28.0022 9.96149 28.9391 9.05563 28.9391 7.92437C28.9394 7.65675 28.8854 7.3917 28.7801 7.1444C28.6749 6.89709 28.5204 6.67238 28.3256 6.48315C28.1308 6.29392 27.8995 6.14388 27.645 6.04162C27.3904 5.93937 27.1175 5.88691 26.8421 5.88724V5.88724ZM34.998 17C34.998 14.6524 35.0199 12.3261 34.8842 9.98276C34.7485 7.26092 34.1093 4.84529 32.0605 2.85494C30.0073 0.860345 27.525 0.243679 24.7232 0.11184C22.3066 -0.0199994 19.9119 0.00126499 17.4997 0.00126499C15.0831 0.00126499 12.6884 -0.0199994 10.2762 0.11184C7.47434 0.243679 4.9877 0.864598 2.93886 2.85494C0.885633 4.84954 0.250841 7.26092 0.115127 9.98276C-0.0205873 12.3303 0.00130217 14.6567 0.00130217 17C0.00130217 19.3433 -0.0205873 21.6739 0.115127 24.0172C0.250841 26.7391 0.890011 29.1547 2.93886 31.1451C4.99208 33.1397 7.47434 33.7563 10.2762 33.8882C12.6928 34.02 15.0875 33.9987 17.4997 33.9987C19.9163 33.9987 22.311 34.02 24.7232 33.8882C27.525 33.7563 30.0116 33.1354 32.0605 31.1451C34.1137 29.1505 34.7485 26.7391 34.8842 24.0172C35.0243 21.6739 34.998 19.3476 34.998 17V17ZM31.1455 27.0283C30.8259 27.8023 30.4407 28.3807 29.8234 28.9761C29.2061 29.5757 28.6151 29.95 27.8183 30.2605C25.5156 31.1493 20.0476 30.9494 17.4953 30.9494C14.943 30.9494 9.47065 31.1493 7.16789 30.2647C6.37111 29.9543 5.77572 29.58 5.16282 28.9803C4.54554 28.3807 4.16029 27.8066 3.8407 27.0325C2.9301 24.7913 3.13586 19.4794 3.13586 17C3.13586 14.5206 2.9301 9.20448 3.8407 6.96747C4.16029 6.19345 4.54554 5.61506 5.16282 5.01966C5.7801 4.42425 6.37111 4.04575 7.16789 3.73529C9.47065 2.85069 14.943 3.05058 17.4953 3.05058C20.0476 3.05058 25.5199 2.85069 27.8227 3.73529C28.6195 4.04575 29.2149 4.42 29.8278 5.01966C30.4451 5.61931 30.8303 6.19345 31.1499 6.96747C32.0605 9.20448 31.8547 14.5206 31.8547 17C31.8547 19.4794 32.0605 24.7913 31.1455 27.0283Z" fill="#C5C5C5"/>
</svg>
