<svg xmlns="http://www.w3.org/2000/svg" width="18" height="18" fill="none" viewBox="0 0 18 18">
                      <path fill-rule="evenodd" d="M9.273.85a.71.71 0 0 0-.901 0L.55 7.25a.71.71 0 0 0 .901 1.101l7.372-6.032 5.85 4.786a.71.71 0 1 0 .901-1.101L9.273.85zM3.845 9.222a.71.71 0 1 0-1.422 0v7.111a.71.71 0 0 0 .711.711h6.4a.71.71 0 1 0 0-1.422H3.845v-6.4zm9.932 0a2.04 2.04 0 0 0-2.11 2.008c.001.243.112.6.358 1.053.239.44.567.901.908 1.328l.867.996.867-.996c.341-.427.669-.887.908-1.328.246-.453.357-.81.358-1.053a2.04 2.04 0 0 0-2.11-2.008h-.047zm2.868 2.004h.711c0 .599-.245 1.21-.531 1.736-.294.542-.678 1.075-1.047 1.537l-1.018 1.163-.336.344-.096.095-.027.026-.007.007-.003.003-.491-.514-.491.514-.003-.003-.007-.007-.026-.026-.096-.095-.336-.344-1.017-1.163c-.37-.462-.753-.995-1.047-1.537-.286-.526-.531-1.138-.531-1.736v-.01c.012-.931.399-1.817 1.072-2.46.668-.637 1.561-.981 2.483-.957.922-.024 1.816.32 2.483.957.673.643 1.06 1.529 1.072 2.46l-.711.01zm-3.335 4.911c0 0 0 0 .491-.514l.491.514a.71.71 0 0 1-.982 0zm.491-4.07a.71.71 0 1 0 0-1.422.71.71 0 1 0 0 1.422z" fill="#4c40f7"></path>
                    </svg>