<svg xmlns="http://www.w3.org/2000/svg" width="18" height="15" fill="none" viewBox="0 0 18 15" cursorshover="true">
                      <path fill-rule="evenodd" d="M2.422.267C1.244.267.289 1.222.289 2.4v9.956c0 1.178.955 2.133 2.133 2.133h12.8c1.178 0 2.133-.955 2.133-2.133V2.4c0-1.178-.955-2.133-2.133-2.133h-12.8zM1.711 2.4a.71.71 0 0 1 .711-.711h12.8a.71.71 0 0 1 .711.711v9.956a.71.71 0 0 1-.711.711h-12.8a.71.71 0 0 1-.711-.711V2.4zm2.636.919a.71.71 0 1 0-1.006 1.006l4.978 4.978a.71.71 0 0 0 1.006 0l4.978-4.978a.71.71 0 1 0-1.006-1.006L8.822 7.794 4.347 3.319zm1.422 5.689a.71.71 0 0 1 0 1.006l-1.422 1.422a.71.71 0 1 1-1.006-1.006l1.422-1.422a.71.71 0 0 1 1.006 0zm7.111 0a.71.71 0 1 0-1.006 1.006l1.422 1.422a.71.71 0 1 0 1.006-1.006l-1.422-1.422z" fill="#4c40f7" cursorshover="true"></path>
                    </svg>