<svg xmlns="http://www.w3.org/2000/svg" width="17" height="18" fill="none" viewBox="0 0 17 18">
                            <path fill-rule="evenodd" d="M8.5.875a4.5 4.5 0 0 0-4.5 4.5v2a4.5 4.5 0 1 0 9 0v-2a4.5 4.5 0 0 0-4.5-4.5zM6 5.375a2.5 2.5 0 1 1 5 0v2a2.5 2.5 0 1 1-5 0v-2zM3.547 12.25a1 1 0 0 0-.969-1.75A5 5 0 0 0 0 14.875v2a1 1 0 0 0 1 1h15a1 1 0 0 0 1-1v-2a5 5 0 0 0-2.578-4.375 1 1 0 1 0-.969 1.75A3 3 0 0 1 15 14.875v1H2v-1a3 3 0 0 1 1.547-2.625z" fill="#111029"></path>
                          </svg>