<svg xmlns="http://www.w3.org/2000/svg" width="17" height="18" fill="none" viewBox="0 0 17 18">
                      <path fill-rule="evenodd" d="M6.689 2.978a.71.71 0 0 1 .711-.711h7.111a.71.71 0 0 1 .711.711v4.267a.71.71 0 0 1-.711.711H8.822a.71.71 0 0 0-.318.075l-1.815.908V2.978zM7.4.844c-1.178 0-2.133.955-2.133 2.133v7.111a.71.71 0 0 0 1.029.636L8.99 9.378h5.521c1.178 0 2.133-.955 2.133-2.133V2.978c0-1.178-.955-2.133-2.133-2.133H7.4zM2.422 2.267C1.244 2.267.289 3.222.289 4.4v11.378c0 1.178.955 2.133 2.133 2.133h7.822c1.178 0 2.133-.955 2.133-2.133V10.8a.71.71 0 1 0-1.422 0v4.978a.71.71 0 0 1-.711.711H2.422a.71.71 0 0 1-.711-.711V4.4a.71.71 0 0 1 .711-.711h1.422a.71.71 0 1 0 0-1.422H2.422z" fill="#4c40f7"></path>
                    </svg>